<svg width="13" height="22" viewBox="0 0 13 22" fill="none" xmlns="http://www.w3.org/2000/svg">
<path d="M12.1117 10.1806L2.76645 0.835485C2.55031 0.61917 2.26177 0.5 1.95412 0.5C1.64646 0.5 1.35793 0.61917 1.14178 0.835485L0.453567 1.52353C0.00574169 1.97187 0.00574169 2.70054 0.453567 3.1482L8.30102 10.9956L0.44486 18.8518C0.228715 19.0681 0.109375 19.3565 0.109375 19.664C0.109375 19.9718 0.228715 20.2602 0.44486 20.4766L1.13307 21.1645C1.34939 21.3808 1.63775 21.5 1.94541 21.5C2.25306 21.5 2.5416 21.3808 2.75774 21.1645L12.1117 11.8109C12.3284 11.5939 12.4474 11.3042 12.4467 10.9962C12.4474 10.687 12.3284 10.3974 12.1117 10.1806Z" fill="#111111"/>
</svg>
