<svg width="22" height="22" viewBox="0 0 22 22" fill="none" xmlns="http://www.w3.org/2000/svg">
<path d="M15.6914 0.00457747L12.8771 0C9.71534 0 7.67207 2.12509 7.67207 5.41423V7.91055H4.84242C4.59791 7.91055 4.3999 8.1115 4.3999 8.35937V11.9763C4.3999 12.2241 4.59813 12.4249 4.84242 12.4249H7.67207V21.5514C7.67207 21.7993 7.87007 22 8.11459 22H11.8065C12.051 22 12.249 21.799 12.249 21.5514V12.4249H15.5575C15.802 12.4249 16 12.2241 16 11.9763L16.0014 8.35937C16.0014 8.24036 15.9546 8.12638 15.8718 8.04215C15.7889 7.95793 15.676 7.91055 15.5586 7.91055H12.249V5.79439C12.249 4.77728 12.4881 4.26094 13.7951 4.26094L15.6909 4.26025C15.9352 4.26025 16.1332 4.0593 16.1332 3.81166V0.453169C16.1332 0.205757 15.9355 0.00503522 15.6914 0.00457747Z" fill="#999999"/>
<mask id="mask0_5_651" style="mask-type:alpha" maskUnits="userSpaceOnUse" x="4" y="0" width="13" height="22">
<path d="M15.6914 0.00457747L12.8771 0C9.71534 0 7.67207 2.12509 7.67207 5.41423V7.91055H4.84242C4.59791 7.91055 4.3999 8.1115 4.3999 8.35937V11.9763C4.3999 12.2241 4.59813 12.4249 4.84242 12.4249H7.67207V21.5514C7.67207 21.7993 7.87007 22 8.11459 22H11.8065C12.051 22 12.249 21.799 12.249 21.5514V12.4249H15.5575C15.802 12.4249 16 12.2241 16 11.9763L16.0014 8.35937C16.0014 8.24036 15.9546 8.12638 15.8718 8.04215C15.7889 7.95793 15.676 7.91055 15.5586 7.91055H12.249V5.79439C12.249 4.77728 12.4881 4.26094 13.7951 4.26094L15.6909 4.26025C15.9352 4.26025 16.1332 4.0593 16.1332 3.81166V0.453169C16.1332 0.205757 15.9355 0.00503522 15.6914 0.00457747Z" fill="white"/>
</mask>
<g mask="url(#mask0_5_651)">
<path fill-rule="evenodd" clip-rule="evenodd" d="M0 0H22V22H0V0Z" fill="#E65707"/>
</g>
</svg>
