<svg width="22" height="22" viewBox="0 0 22 22" fill="none" xmlns="http://www.w3.org/2000/svg">
<path fill-rule="evenodd" clip-rule="evenodd" d="M6.03758 0H15.8408C19.1702 0 21.8787 2.70859 21.8786 6.03771V15.8409C21.8786 19.17 19.1702 21.8786 15.8408 21.8786H6.03758C2.70846 21.8786 0 19.1702 0 15.8409V6.03771C0 2.70859 2.70846 0 6.03758 0ZM15.8409 19.9374C18.0998 19.9374 19.9376 18.0998 19.9376 15.8409H19.9374V6.03771C19.9374 3.77895 18.0997 1.94118 15.8408 1.94118H6.03758C3.77882 1.94118 1.94118 3.77895 1.94118 6.03771V15.8409C1.94118 18.0998 3.77882 19.9376 6.03758 19.9374H15.8409ZM5.30174 10.9396C5.30174 7.83097 7.83071 5.302 10.9393 5.302C14.0479 5.302 16.5769 7.83097 16.5769 10.9396C16.5769 14.048 14.0479 16.5769 10.9393 16.5769C7.83071 16.5769 5.30174 14.048 5.30174 10.9396ZM7.24292 10.9394C7.24292 12.9775 8.9012 14.6356 10.9393 14.6356C12.9774 14.6356 14.6357 12.9775 14.6357 10.9394C14.6357 8.9012 12.9775 7.24305 10.9393 7.24305C8.90107 7.24305 7.24292 8.9012 7.24292 10.9394ZM15.8078 4.07272C16.0719 3.80742 16.4393 3.65601 16.8133 3.65601C17.1886 3.65601 17.5561 3.80742 17.8201 4.07272C18.0854 4.33672 18.2368 4.70425 18.2368 5.07954C18.2368 5.45354 18.0854 5.82107 17.8201 6.08637C17.5548 6.35037 17.1886 6.50307 16.8133 6.50307C16.4393 6.50307 16.0718 6.35037 15.8078 6.08637C15.5425 5.82107 15.3898 5.45367 15.3898 5.07954C15.3898 4.70425 15.5424 4.33672 15.8078 4.07272Z" fill="#E65707"/>
<mask id="mask0_5_654" style="mask-type:alpha" maskUnits="userSpaceOnUse" x="0" y="0" width="22" height="22">
<path fill-rule="evenodd" clip-rule="evenodd" d="M6.03758 0H15.8408C19.1702 0 21.8787 2.70859 21.8786 6.03771V15.8409C21.8786 19.17 19.1702 21.8786 15.8408 21.8786H6.03758C2.70846 21.8786 0 19.1702 0 15.8409V6.03771C0 2.70859 2.70846 0 6.03758 0ZM15.8409 19.9374C18.0998 19.9374 19.9376 18.0998 19.9376 15.8409H19.9374V6.03771C19.9374 3.77895 18.0997 1.94118 15.8408 1.94118H6.03758C3.77882 1.94118 1.94118 3.77895 1.94118 6.03771V15.8409C1.94118 18.0998 3.77882 19.9376 6.03758 19.9374H15.8409ZM5.30174 10.9396C5.30174 7.83097 7.83071 5.302 10.9393 5.302C14.0479 5.302 16.5769 7.83097 16.5769 10.9396C16.5769 14.048 14.0479 16.5769 10.9393 16.5769C7.83071 16.5769 5.30174 14.048 5.30174 10.9396ZM7.24292 10.9394C7.24292 12.9775 8.9012 14.6356 10.9393 14.6356C12.9774 14.6356 14.6357 12.9775 14.6357 10.9394C14.6357 8.9012 12.9775 7.24305 10.9393 7.24305C8.90107 7.24305 7.24292 8.9012 7.24292 10.9394ZM15.8078 4.07272C16.0719 3.80742 16.4393 3.65601 16.8133 3.65601C17.1886 3.65601 17.5561 3.80742 17.8201 4.07272C18.0854 4.33672 18.2368 4.70425 18.2368 5.07954C18.2368 5.45354 18.0854 5.82107 17.8201 6.08637C17.5548 6.35037 17.1886 6.50307 16.8133 6.50307C16.4393 6.50307 16.0718 6.35037 15.8078 6.08637C15.5425 5.82107 15.3898 5.45367 15.3898 5.07954C15.3898 4.70425 15.5424 4.33672 15.8078 4.07272Z" fill="white"/>
</mask>
<g mask="url(#mask0_5_654)">
</g>
</svg>
