<svg width="30" height="30" viewBox="0 0 30 30" fill="none" xmlns="http://www.w3.org/2000/svg">
<path d="M29.8409 21.0518C29.8046 20.9756 29.7707 20.9124 29.7392 20.8617C29.2187 19.9489 28.2241 18.8285 26.7559 17.5002L26.7249 17.4698L26.7093 17.4548L26.6936 17.4395H26.6779C26.0115 16.821 25.5895 16.4051 25.4128 16.1922C25.0895 15.7866 25.0171 15.376 25.1938 14.96C25.3186 14.6457 25.7876 13.982 26.5996 12.9678C27.0267 12.4304 27.3649 11.9996 27.6147 11.6751C29.4164 9.34287 30.1974 7.85255 29.9578 7.20354L29.8647 7.05188C29.8022 6.96057 29.6408 6.87704 29.3808 6.80086C29.1202 6.72484 28.787 6.71227 28.3808 6.76293L23.8825 6.79319C23.8096 6.76805 23.7055 6.77039 23.57 6.80086C23.4346 6.83133 23.3668 6.84662 23.3668 6.84662L23.2885 6.88471L23.2264 6.93047C23.1743 6.96073 23.117 7.01395 23.0545 7.09002C22.9923 7.16583 22.9403 7.25479 22.8987 7.35616C22.4089 8.58306 21.8521 9.72376 21.2272 10.7782C20.8419 11.407 20.488 11.9519 20.1648 12.4133C19.8421 12.8745 19.5714 13.2143 19.3529 13.4321C19.134 13.6502 18.9365 13.8249 18.7592 13.9568C18.5821 14.0888 18.4469 14.1446 18.3533 14.1242C18.2595 14.1038 18.1711 14.0835 18.0875 14.0633C17.9418 13.972 17.8246 13.8478 17.7362 13.6907C17.6475 13.5335 17.5877 13.3357 17.5565 13.0974C17.5254 12.859 17.507 12.6539 17.5018 12.4815C17.4969 12.3092 17.4992 12.0656 17.5097 11.7513C17.5206 11.4369 17.5254 11.2241 17.5254 11.1125C17.5254 10.7272 17.5331 10.3089 17.5486 9.85774C17.5644 9.40653 17.5771 9.04902 17.5878 8.78565C17.5984 8.52201 17.6033 8.24308 17.6033 7.94902C17.6033 7.65496 17.585 7.42435 17.5486 7.25697C17.5127 7.08981 17.4576 6.92754 17.385 6.77023C17.312 6.61308 17.2051 6.49152 17.0648 6.40522C16.9243 6.31902 16.7495 6.25062 16.5416 6.1998C15.9896 6.07818 15.2868 6.01239 14.4327 6.00216C12.496 5.98192 11.2515 6.1037 10.6996 6.36734C10.481 6.47873 10.2831 6.63093 10.1062 6.82345C9.91868 7.0466 9.89253 7.16838 10.0279 7.18841C10.6528 7.27956 11.0951 7.4976 11.3555 7.84232L11.4493 8.02499C11.5223 8.15678 11.5952 8.39011 11.6681 8.72465C11.7409 9.0592 11.7879 9.42928 11.8086 9.83467C11.8606 10.575 11.8606 11.2087 11.8086 11.7359C11.7565 12.2633 11.7072 12.6738 11.6602 12.9679C11.6132 13.2619 11.543 13.5002 11.4493 13.6827C11.3555 13.8652 11.2931 13.9767 11.2618 14.0172C11.2305 14.0577 11.2045 14.0832 11.1838 14.0932C11.0485 14.1437 10.9077 14.1695 10.762 14.1695C10.6161 14.1695 10.4392 14.0984 10.231 13.9564C10.0228 13.8144 9.80675 13.6193 9.58282 13.3708C9.3589 13.1223 9.10637 12.775 8.82511 12.3289C8.54407 11.8829 8.25247 11.3556 7.95048 10.7473L7.70063 10.3061C7.54443 10.0222 7.33107 9.60896 7.06032 9.0666C6.7894 8.52403 6.54994 7.9992 6.34177 7.49222C6.25856 7.27929 6.13355 7.11719 5.96696 7.00564L5.88879 6.95988C5.83681 6.91939 5.75338 6.8764 5.63893 6.83059C5.52432 6.78483 5.40472 6.75201 5.27966 6.73182L0.999856 6.76208C0.562515 6.76208 0.265775 6.85856 0.109527 7.05124L0.0469947 7.14239C0.0157561 7.19315 0 7.27423 0 7.38584C0 7.49739 0.0312387 7.63429 0.0937707 7.7964C0.718544 9.22621 1.39797 10.6051 2.13205 11.9334C2.86613 13.2617 3.50404 14.3316 4.04538 15.1423C4.58683 15.9536 5.13873 16.7193 5.70108 17.439C6.26343 18.1589 6.63567 18.6203 6.81779 18.823C7.00014 19.0261 7.14336 19.1779 7.24748 19.2793L7.63804 19.6442C7.88795 19.8876 8.25494 20.1791 8.73916 20.5187C9.2235 20.8586 9.7597 21.1931 10.348 21.5229C10.9365 21.8522 11.6211 22.1209 12.4021 22.3287C13.1831 22.5367 13.9432 22.6202 14.6826 22.5799H16.4789C16.8432 22.5493 17.1192 22.4377 17.3068 22.2452L17.369 22.169C17.4108 22.1085 17.4499 22.0144 17.486 21.8879C17.5225 21.7612 17.5407 21.6216 17.5407 21.4697C17.53 21.0338 17.5641 20.6409 17.642 20.2911C17.7199 19.9414 17.8086 19.6778 17.9078 19.5002C18.007 19.3229 18.119 19.1732 18.2435 19.0518C18.3684 18.9302 18.4573 18.8565 18.5095 18.8312C18.5614 18.8056 18.6028 18.7883 18.634 18.7779C18.884 18.6969 19.1781 18.7754 19.5168 19.0139C19.8553 19.2522 20.1728 19.5464 20.4697 19.8961C20.7665 20.246 21.1231 20.6387 21.5396 21.0746C21.9563 21.5107 22.3206 21.8349 22.6329 22.0481L22.9452 22.2306C23.1537 22.3524 23.4245 22.4639 23.7578 22.5653C24.0905 22.6666 24.382 22.692 24.6322 22.6413L28.6307 22.5806C29.0262 22.5806 29.334 22.5168 29.5523 22.3903C29.771 22.2636 29.9009 22.124 29.9428 21.9721C29.9846 21.8201 29.9869 21.6476 29.9508 21.4547C29.9137 21.2624 29.8772 21.1278 29.8409 21.0518Z" fill="#999999"/>
<mask id="mask0_5_652" style="mask-type:alpha" maskUnits="userSpaceOnUse" x="0" y="6" width="30" height="17">
<path d="M29.8409 21.0518C29.8046 20.9756 29.7707 20.9124 29.7392 20.8617C29.2187 19.9489 28.2241 18.8285 26.7559 17.5002L26.7249 17.4698L26.7093 17.4548L26.6936 17.4395H26.6779C26.0115 16.821 25.5895 16.4051 25.4128 16.1922C25.0895 15.7866 25.0171 15.376 25.1938 14.96C25.3186 14.6457 25.7876 13.982 26.5996 12.9678C27.0267 12.4304 27.3649 11.9996 27.6147 11.6751C29.4164 9.34287 30.1974 7.85255 29.9578 7.20354L29.8647 7.05188C29.8022 6.96057 29.6408 6.87704 29.3808 6.80086C29.1202 6.72484 28.787 6.71227 28.3808 6.76293L23.8825 6.79319C23.8096 6.76805 23.7055 6.77039 23.57 6.80086C23.4346 6.83133 23.3668 6.84662 23.3668 6.84662L23.2885 6.88471L23.2264 6.93047C23.1743 6.96073 23.117 7.01395 23.0545 7.09002C22.9923 7.16583 22.9403 7.25479 22.8987 7.35616C22.4089 8.58306 21.8521 9.72376 21.2272 10.7782C20.8419 11.407 20.488 11.9519 20.1648 12.4133C19.8421 12.8745 19.5714 13.2143 19.3529 13.4321C19.134 13.6502 18.9365 13.8249 18.7592 13.9568C18.5821 14.0888 18.4469 14.1446 18.3533 14.1242C18.2595 14.1038 18.1711 14.0835 18.0875 14.0633C17.9418 13.972 17.8246 13.8478 17.7362 13.6907C17.6475 13.5335 17.5877 13.3357 17.5565 13.0974C17.5254 12.859 17.507 12.6539 17.5018 12.4815C17.4969 12.3092 17.4992 12.0656 17.5097 11.7513C17.5206 11.4369 17.5254 11.2241 17.5254 11.1125C17.5254 10.7272 17.5331 10.3089 17.5486 9.85774C17.5644 9.40653 17.5771 9.04902 17.5878 8.78565C17.5984 8.52201 17.6033 8.24308 17.6033 7.94902C17.6033 7.65496 17.585 7.42435 17.5486 7.25697C17.5127 7.08981 17.4576 6.92754 17.385 6.77023C17.312 6.61308 17.2051 6.49152 17.0648 6.40522C16.9243 6.31902 16.7495 6.25062 16.5416 6.1998C15.9896 6.07818 15.2868 6.01239 14.4327 6.00216C12.496 5.98192 11.2515 6.1037 10.6996 6.36734C10.481 6.47873 10.2831 6.63093 10.1062 6.82345C9.91868 7.0466 9.89253 7.16838 10.0279 7.18841C10.6528 7.27956 11.0951 7.4976 11.3555 7.84232L11.4493 8.02499C11.5223 8.15678 11.5952 8.39011 11.6681 8.72465C11.7409 9.0592 11.7879 9.42928 11.8086 9.83467C11.8606 10.575 11.8606 11.2087 11.8086 11.7359C11.7565 12.2633 11.7072 12.6738 11.6602 12.9679C11.6132 13.2619 11.543 13.5002 11.4493 13.6827C11.3555 13.8652 11.2931 13.9767 11.2618 14.0172C11.2305 14.0577 11.2045 14.0832 11.1838 14.0932C11.0485 14.1437 10.9077 14.1695 10.762 14.1695C10.6161 14.1695 10.4392 14.0984 10.231 13.9564C10.0228 13.8144 9.80675 13.6193 9.58282 13.3708C9.3589 13.1223 9.10637 12.775 8.82511 12.3289C8.54407 11.8829 8.25247 11.3556 7.95048 10.7473L7.70063 10.3061C7.54443 10.0222 7.33107 9.60896 7.06032 9.0666C6.7894 8.52403 6.54994 7.9992 6.34177 7.49222C6.25856 7.27929 6.13355 7.11719 5.96696 7.00564L5.88879 6.95988C5.83681 6.91939 5.75338 6.8764 5.63893 6.83059C5.52432 6.78483 5.40472 6.75201 5.27966 6.73182L0.999856 6.76208C0.562515 6.76208 0.265775 6.85856 0.109527 7.05124L0.0469947 7.14239C0.0157561 7.19315 0 7.27423 0 7.38584C0 7.49739 0.0312387 7.63429 0.0937707 7.7964C0.718544 9.22621 1.39797 10.6051 2.13205 11.9334C2.86613 13.2617 3.50404 14.3316 4.04538 15.1423C4.58683 15.9536 5.13873 16.7193 5.70108 17.439C6.26343 18.1589 6.63567 18.6203 6.81779 18.823C7.00014 19.0261 7.14336 19.1779 7.24748 19.2793L7.63804 19.6442C7.88795 19.8876 8.25494 20.1791 8.73916 20.5187C9.2235 20.8586 9.7597 21.1931 10.348 21.5229C10.9365 21.8522 11.6211 22.1209 12.4021 22.3287C13.1831 22.5367 13.9432 22.6202 14.6826 22.5799H16.4789C16.8432 22.5493 17.1192 22.4377 17.3068 22.2452L17.369 22.169C17.4108 22.1085 17.4499 22.0144 17.486 21.8879C17.5225 21.7612 17.5407 21.6216 17.5407 21.4697C17.53 21.0338 17.5641 20.6409 17.642 20.2911C17.7199 19.9414 17.8086 19.6778 17.9078 19.5002C18.007 19.3229 18.119 19.1732 18.2435 19.0518C18.3684 18.9302 18.4573 18.8565 18.5095 18.8312C18.5614 18.8056 18.6028 18.7883 18.634 18.7779C18.884 18.6969 19.1781 18.7754 19.5168 19.0139C19.8553 19.2522 20.1728 19.5464 20.4697 19.8961C20.7665 20.246 21.1231 20.6387 21.5396 21.0746C21.9563 21.5107 22.3206 21.8349 22.6329 22.0481L22.9452 22.2306C23.1537 22.3524 23.4245 22.4639 23.7578 22.5653C24.0905 22.6666 24.382 22.692 24.6322 22.6413L28.6307 22.5806C29.0262 22.5806 29.334 22.5168 29.5523 22.3903C29.771 22.2636 29.9009 22.124 29.9428 21.9721C29.9846 21.8201 29.9869 21.6476 29.9508 21.4547C29.9137 21.2624 29.8772 21.1278 29.8409 21.0518Z" fill="white"/>
</mask>
<g mask="url(#mask0_5_652)">
<path fill-rule="evenodd" clip-rule="evenodd" d="M0 0H30V30H0V0Z" fill="#E65707"/>
</g>
</svg>
