<svg width="270" height="50" viewBox="0 0 270 50" fill="none" xmlns="http://www.w3.org/2000/svg">
<path d="M76.802 23.13C75.45 23.13 74.2193 22.87 73.11 22.35C72.018 21.83 71.0733 21.128 70.276 20.244C69.496 19.3427 68.8893 18.3373 68.456 17.228C68.0227 16.1013 67.806 14.9487 67.806 13.77C67.806 12.5393 68.0313 11.3693 68.482 10.26C68.95 9.13333 69.5827 8.13667 70.38 7.27C71.1947 6.386 72.148 5.69267 73.24 5.19C74.3493 4.67 75.5627 4.41 76.88 4.41C78.2147 4.41 79.428 4.67867 80.52 5.216C81.6293 5.75333 82.574 6.47267 83.354 7.374C84.134 8.27533 84.7407 9.28067 85.174 10.39C85.6073 11.4993 85.824 12.6433 85.824 13.822C85.824 15.0353 85.5987 16.2053 85.148 17.332C84.6973 18.4413 84.0647 19.438 83.25 20.322C82.4527 21.1887 81.4993 21.8733 80.39 22.376C79.298 22.8787 78.102 23.13 76.802 23.13ZM71.446 13.77C71.446 14.5673 71.5673 15.3387 71.81 16.084C72.0527 16.8293 72.3993 17.4967 72.85 18.086C73.318 18.658 73.8813 19.1173 74.54 19.464C75.216 19.7933 75.9787 19.958 76.828 19.958C77.6947 19.958 78.466 19.7847 79.142 19.438C79.818 19.074 80.3813 18.5973 80.832 18.008C81.2827 17.4013 81.6207 16.734 81.846 16.006C82.0887 15.2607 82.21 14.5153 82.21 13.77C82.21 12.9727 82.08 12.21 81.82 11.482C81.5773 10.7367 81.222 10.078 80.754 9.506C80.3033 8.91667 79.74 8.45733 79.064 8.128C78.4053 7.78133 77.66 7.608 76.828 7.608C75.944 7.608 75.164 7.79 74.488 8.154C73.8293 8.50067 73.2747 8.96867 72.824 9.558C72.3733 10.1473 72.0267 10.806 71.784 11.534C71.5587 12.262 71.446 13.0073 71.446 13.77ZM87.8947 23V9.376H91.3787V14.576H96.8907V9.376H100.375V23H96.8907V17.488H91.3787V23H87.8947ZM102.356 23.182V20.088C102.772 20.0707 103.145 19.9667 103.474 19.776C103.803 19.5853 104.089 19.2647 104.332 18.814C104.592 18.346 104.791 17.696 104.93 16.864C105.086 16.032 105.19 14.966 105.242 13.666L105.424 9.376H115.642V23H112.158V12.418H108.492L108.44 14.004C108.371 15.7893 108.197 17.2713 107.92 18.45C107.643 19.6287 107.253 20.5647 106.75 21.258C106.265 21.934 105.658 22.4193 104.93 22.714C104.202 23.0087 103.344 23.1647 102.356 23.182ZM117.654 18.97C117.654 18.086 117.897 17.3147 118.382 16.656C118.885 15.98 119.578 15.46 120.462 15.096C121.346 14.732 122.36 14.55 123.504 14.55C124.076 14.55 124.657 14.5933 125.246 14.68C125.836 14.7667 126.347 14.9053 126.78 15.096V14.368C126.78 13.5013 126.52 12.834 126 12.366C125.498 11.898 124.744 11.664 123.738 11.664C122.993 11.664 122.282 11.794 121.606 12.054C120.93 12.314 120.22 12.6953 119.474 13.198L118.356 10.91C119.258 10.3207 120.176 9.87867 121.112 9.584C122.066 9.28933 123.062 9.142 124.102 9.142C126.044 9.142 127.552 9.62733 128.626 10.598C129.718 11.5687 130.264 12.9553 130.264 14.758V19.1C130.264 19.464 130.325 19.724 130.446 19.88C130.585 20.036 130.802 20.1313 131.096 20.166V23C130.784 23.052 130.498 23.0953 130.238 23.13C129.996 23.1647 129.788 23.182 129.614 23.182C128.921 23.182 128.392 23.026 128.028 22.714C127.682 22.402 127.465 22.0207 127.378 21.57L127.3 20.868C126.711 21.6307 125.974 22.22 125.09 22.636C124.206 23.052 123.305 23.26 122.386 23.26C121.485 23.26 120.67 23.078 119.942 22.714C119.232 22.3327 118.668 21.8213 118.252 21.18C117.854 20.5213 117.654 19.7847 117.654 18.97ZM126.13 19.672C126.321 19.464 126.477 19.256 126.598 19.048C126.72 18.84 126.78 18.6493 126.78 18.476V17.098C126.364 16.9247 125.914 16.7947 125.428 16.708C124.943 16.604 124.484 16.552 124.05 16.552C123.149 16.552 122.404 16.7513 121.814 17.15C121.242 17.5313 120.956 18.0427 120.956 18.684C120.956 19.0307 121.052 19.36 121.242 19.672C121.433 19.984 121.71 20.2353 122.074 20.426C122.438 20.6167 122.872 20.712 123.374 20.712C123.894 20.712 124.406 20.6167 124.908 20.426C125.411 20.218 125.818 19.9667 126.13 19.672ZM133.303 23V9.402H136.787V18.346L142.897 9.376H146.069V23H142.585V14.264L136.553 23H133.303ZM139.699 8.102C138.365 8.102 137.316 7.764 136.553 7.088C135.791 6.39467 135.409 5.51067 135.409 4.436H137.567C137.567 4.956 137.741 5.38933 138.087 5.736C138.434 6.08267 138.971 6.256 139.699 6.256C140.427 6.256 140.947 6.09133 141.259 5.762C141.589 5.43267 141.788 4.99067 141.857 4.436H144.015C144.015 5.51067 143.634 6.39467 142.871 7.088C142.109 7.764 141.051 8.102 139.699 8.102ZM149.032 23V9.376H152.516V14.576H158.028V9.376H161.512V23H158.028V17.488H152.516V23H149.032ZM164.403 17.436V14.29H177.091V17.436H164.403ZM195.323 23V10.884L190.591 19.906H188.589L183.857 10.884V23H180.269V4.54H184.117L189.577 15.044L195.089 4.54H198.911V23H195.323ZM208.3 23.26C207.208 23.26 206.22 23.078 205.336 22.714C204.452 22.3327 203.698 21.8213 203.074 21.18C202.45 20.5213 201.964 19.776 201.618 18.944C201.288 18.0947 201.124 17.202 201.124 16.266C201.124 14.966 201.41 13.7787 201.982 12.704C202.571 11.6293 203.403 10.7713 204.478 10.13C205.57 9.47133 206.852 9.142 208.326 9.142C209.816 9.142 211.09 9.47133 212.148 10.13C213.205 10.7713 214.011 11.6293 214.566 12.704C215.138 13.7613 215.424 14.9053 215.424 16.136C215.424 16.344 215.415 16.5607 215.398 16.786C215.38 16.994 215.363 17.1673 215.346 17.306H204.816C204.885 17.9993 205.084 18.606 205.414 19.126C205.76 19.646 206.194 20.0447 206.714 20.322C207.251 20.582 207.823 20.712 208.43 20.712C209.123 20.712 209.773 20.5473 210.38 20.218C211.004 19.8713 211.428 19.4207 211.654 18.866L214.644 19.698C214.314 20.3913 213.838 21.0067 213.214 21.544C212.607 22.0813 211.888 22.506 211.056 22.818C210.224 23.1127 209.305 23.26 208.3 23.26ZM204.738 15.096H211.862C211.792 14.4027 211.593 13.8047 211.264 13.302C210.952 12.782 210.536 12.3833 210.016 12.106C209.496 11.8113 208.915 11.664 208.274 11.664C207.65 11.664 207.078 11.8113 206.558 12.106C206.055 12.3833 205.639 12.782 205.31 13.302C204.998 13.8047 204.807 14.4027 204.738 15.096ZM216.211 26.302V19.958H216.575C216.922 19.958 217.243 19.8627 217.537 19.672C217.849 19.4813 218.118 19.1607 218.343 18.71C218.586 18.242 218.777 17.6007 218.915 16.786C219.071 15.9713 219.175 14.9313 219.227 13.666L219.383 9.376H229.601V19.958H231.499V26.302H228.457V23H219.279V26.302H216.211ZM220.969 19.958H226.117V12.314H222.425L222.347 14.004C222.295 15.148 222.209 16.1187 222.087 16.916C221.983 17.696 221.836 18.3373 221.645 18.84C221.472 19.3253 221.247 19.698 220.969 19.958ZM233.54 23V9.402H237.024V18.346L243.134 9.376H246.306V23H242.822V14.264L236.79 23H233.54ZM248.333 18.97C248.333 18.086 248.576 17.3147 249.061 16.656C249.564 15.98 250.257 15.46 251.141 15.096C252.025 14.732 253.039 14.55 254.183 14.55C254.755 14.55 255.336 14.5933 255.925 14.68C256.514 14.7667 257.026 14.9053 257.459 15.096V14.368C257.459 13.5013 257.199 12.834 256.679 12.366C256.176 11.898 255.422 11.664 254.417 11.664C253.672 11.664 252.961 11.794 252.285 12.054C251.609 12.314 250.898 12.6953 250.153 13.198L249.035 10.91C249.936 10.3207 250.855 9.87867 251.791 9.584C252.744 9.28933 253.741 9.142 254.781 9.142C256.722 9.142 258.23 9.62733 259.305 10.598C260.397 11.5687 260.943 12.9553 260.943 14.758V19.1C260.943 19.464 261.004 19.724 261.125 19.88C261.264 20.036 261.48 20.1313 261.775 20.166V23C261.463 23.052 261.177 23.0953 260.917 23.13C260.674 23.1647 260.466 23.182 260.293 23.182C259.6 23.182 259.071 23.026 258.707 22.714C258.36 22.402 258.144 22.0207 258.057 21.57L257.979 20.868C257.39 21.6307 256.653 22.22 255.769 22.636C254.885 23.052 253.984 23.26 253.065 23.26C252.164 23.26 251.349 23.078 250.621 22.714C249.91 22.3327 249.347 21.8213 248.931 21.18C248.532 20.5213 248.333 19.7847 248.333 18.97ZM256.809 19.672C257 19.464 257.156 19.256 257.277 19.048C257.398 18.84 257.459 18.6493 257.459 18.476V17.098C257.043 16.9247 256.592 16.7947 256.107 16.708C255.622 16.604 255.162 16.552 254.729 16.552C253.828 16.552 253.082 16.7513 252.493 17.15C251.921 17.5313 251.635 18.0427 251.635 18.684C251.635 19.0307 251.73 19.36 251.921 19.672C252.112 19.984 252.389 20.2353 252.753 20.426C253.117 20.6167 253.55 20.712 254.053 20.712C254.573 20.712 255.084 20.6167 255.587 20.426C256.09 20.218 256.497 19.9667 256.809 19.672Z" fill="#E6E7E6"/>
<path d="M68.345 43L72.455 37.495L68.615 32.35H70.595L73.85 36.805H74.96V32.35H76.64V36.805H77.735L81.005 32.35H82.985L79.13 37.495L83.27 43H81.305L77.78 38.35H76.64V43H74.96V38.35H73.82L70.28 43H68.345ZM85.0696 46.33C84.8896 46.33 84.6996 46.305 84.4996 46.255C84.2996 46.205 84.0896 46.13 83.8696 46.03L84.2896 44.8C84.4096 44.86 84.5246 44.905 84.6346 44.935C84.7446 44.965 84.8446 44.98 84.9346 44.98C85.1846 44.98 85.4096 44.875 85.6096 44.665C85.8196 44.465 86.0046 44.16 86.1646 43.75L86.4646 42.94L83.1496 35.155H84.8746L87.2746 41.32L89.4046 35.155H90.9946L87.5446 44.2C87.3746 44.67 87.1596 45.06 86.8996 45.37C86.6496 45.68 86.3696 45.915 86.0596 46.075C85.7496 46.245 85.4196 46.33 85.0696 46.33ZM96.6628 43.15C96.0328 43.15 95.4778 43 94.9978 42.7C94.5178 42.4 94.1378 42.01 93.8578 41.53V46.195H92.2078V35.155H93.6628V36.565C93.9628 36.095 94.3528 35.72 94.8328 35.44C95.3128 35.16 95.8478 35.02 96.4378 35.02C96.9778 35.02 97.4728 35.13 97.9228 35.35C98.3728 35.56 98.7628 35.855 99.0928 36.235C99.4228 36.615 99.6778 37.05 99.8578 37.54C100.048 38.02 100.143 38.53 100.143 39.07C100.143 39.82 99.9928 40.505 99.6928 41.125C99.4028 41.745 98.9928 42.24 98.4628 42.61C97.9428 42.97 97.3428 43.15 96.6628 43.15ZM96.1228 41.74C96.4728 41.74 96.7878 41.665 97.0678 41.515C97.3578 41.365 97.6028 41.165 97.8028 40.915C98.0128 40.665 98.1728 40.38 98.2828 40.06C98.3928 39.74 98.4478 39.41 98.4478 39.07C98.4478 38.71 98.3878 38.37 98.2678 38.05C98.1478 37.73 97.9728 37.45 97.7428 37.21C97.5228 36.97 97.2628 36.78 96.9628 36.64C96.6728 36.5 96.3528 36.43 96.0028 36.43C95.7928 36.43 95.5728 36.47 95.3428 36.55C95.1128 36.63 94.8978 36.74 94.6978 36.88C94.4978 37.02 94.3228 37.185 94.1728 37.375C94.0228 37.565 93.9178 37.765 93.8578 37.975V40.03C93.9978 40.35 94.1828 40.64 94.4128 40.9C94.6428 41.15 94.9078 41.355 95.2078 41.515C95.5078 41.665 95.8128 41.74 96.1228 41.74ZM101.627 43V35.155H103.277V38.275H106.922V35.155H108.572V43H106.922V39.7H103.277V43H101.627ZM109.992 40.705C109.992 40.205 110.132 39.77 110.412 39.4C110.702 39.02 111.097 38.73 111.597 38.53C112.097 38.32 112.677 38.215 113.337 38.215C113.687 38.215 114.042 38.24 114.402 38.29C114.772 38.34 115.097 38.42 115.377 38.53V38.035C115.377 37.485 115.212 37.055 114.882 36.745C114.552 36.435 114.077 36.28 113.457 36.28C113.017 36.28 112.602 36.36 112.212 36.52C111.822 36.67 111.407 36.885 110.967 37.165L110.412 36.055C110.932 35.705 111.452 35.445 111.972 35.275C112.502 35.105 113.057 35.02 113.637 35.02C114.687 35.02 115.512 35.3 116.112 35.86C116.722 36.41 117.027 37.195 117.027 38.215V41.14C117.027 41.33 117.057 41.465 117.117 41.545C117.187 41.625 117.302 41.67 117.462 41.68V43C117.312 43.03 117.177 43.05 117.057 43.06C116.937 43.07 116.837 43.075 116.757 43.075C116.407 43.075 116.142 42.99 115.962 42.82C115.782 42.65 115.677 42.45 115.647 42.22L115.602 41.77C115.262 42.21 114.827 42.55 114.297 42.79C113.767 43.03 113.232 43.15 112.692 43.15C112.172 43.15 111.707 43.045 111.297 42.835C110.887 42.615 110.567 42.32 110.337 41.95C110.107 41.58 109.992 41.165 109.992 40.705ZM114.987 41.185C115.107 41.055 115.202 40.925 115.272 40.795C115.342 40.665 115.377 40.55 115.377 40.45V39.55C115.097 39.44 114.802 39.36 114.492 39.31C114.182 39.25 113.877 39.22 113.577 39.22C112.977 39.22 112.487 39.34 112.107 39.58C111.737 39.82 111.552 40.15 111.552 40.57C111.552 40.8 111.612 41.02 111.732 41.23C111.862 41.44 112.042 41.61 112.272 41.74C112.512 41.87 112.807 41.935 113.157 41.935C113.517 41.935 113.862 41.865 114.192 41.725C114.522 41.585 114.787 41.405 114.987 41.185ZM118.399 43.075V41.605C118.649 41.605 118.874 41.545 119.074 41.425C119.274 41.295 119.449 41.085 119.599 40.795C119.749 40.495 119.869 40.08 119.959 39.55C120.049 39.02 120.109 38.345 120.139 37.525L120.244 35.155H125.839V43H124.189V36.61H121.699L121.669 37.675C121.629 38.725 121.534 39.6 121.384 40.3C121.234 40.99 121.024 41.54 120.754 41.95C120.494 42.35 120.164 42.64 119.764 42.82C119.374 42.99 118.919 43.075 118.399 43.075ZM131.104 38.74L134.974 35.965V37.33L132.424 39.115L134.974 40.84V42.19L131.104 39.565V38.74ZM135.079 38.74L138.964 35.965V37.33L136.399 39.115L138.964 40.84V42.19L135.079 39.565V38.74ZM141.066 43V32.35H147.411V33.835H142.746V43H141.066ZM148.21 40.705C148.21 40.205 148.35 39.77 148.63 39.4C148.92 39.02 149.315 38.73 149.815 38.53C150.315 38.32 150.895 38.215 151.555 38.215C151.905 38.215 152.26 38.24 152.62 38.29C152.99 38.34 153.315 38.42 153.595 38.53V38.035C153.595 37.485 153.43 37.055 153.1 36.745C152.77 36.435 152.295 36.28 151.675 36.28C151.235 36.28 150.82 36.36 150.43 36.52C150.04 36.67 149.625 36.885 149.185 37.165L148.63 36.055C149.15 35.705 149.67 35.445 150.19 35.275C150.72 35.105 151.275 35.02 151.855 35.02C152.905 35.02 153.73 35.3 154.33 35.86C154.94 36.41 155.245 37.195 155.245 38.215V41.14C155.245 41.33 155.275 41.465 155.335 41.545C155.405 41.625 155.52 41.67 155.68 41.68V43C155.53 43.03 155.395 43.05 155.275 43.06C155.155 43.07 155.055 43.075 154.975 43.075C154.625 43.075 154.36 42.99 154.18 42.82C154 42.65 153.895 42.45 153.865 42.22L153.82 41.77C153.48 42.21 153.045 42.55 152.515 42.79C151.985 43.03 151.45 43.15 150.91 43.15C150.39 43.15 149.925 43.045 149.515 42.835C149.105 42.615 148.785 42.32 148.555 41.95C148.325 41.58 148.21 41.165 148.21 40.705ZM153.205 41.185C153.325 41.055 153.42 40.925 153.49 40.795C153.56 40.665 153.595 40.55 153.595 40.45V39.55C153.315 39.44 153.02 39.36 152.71 39.31C152.4 39.25 152.095 39.22 151.795 39.22C151.195 39.22 150.705 39.34 150.325 39.58C149.955 39.82 149.77 40.15 149.77 40.57C149.77 40.8 149.83 41.02 149.95 41.23C150.08 41.44 150.26 41.61 150.49 41.74C150.73 41.87 151.025 41.935 151.375 41.935C151.735 41.935 152.08 41.865 152.41 41.725C152.74 41.585 153.005 41.405 153.205 41.185ZM159.872 43.12C159.072 43.12 158.397 42.975 157.847 42.685C157.307 42.385 156.892 41.975 156.602 41.455L157.937 40.855C158.107 41.145 158.347 41.375 158.657 41.545C158.967 41.705 159.342 41.785 159.782 41.785C160.312 41.785 160.722 41.675 161.012 41.455C161.302 41.235 161.447 40.945 161.447 40.585C161.447 40.255 161.327 39.99 161.087 39.79C160.847 39.58 160.507 39.47 160.067 39.46H159.257V38.41H160.097C160.297 38.41 160.472 38.365 160.622 38.275C160.772 38.185 160.887 38.065 160.967 37.915C161.057 37.755 161.102 37.575 161.102 37.375C161.102 37.075 160.987 36.835 160.757 36.655C160.537 36.465 160.202 36.37 159.752 36.37C159.362 36.37 159.042 36.445 158.792 36.595C158.542 36.735 158.337 36.945 158.177 37.225L156.932 36.565C157.192 36.085 157.572 35.71 158.072 35.44C158.572 35.17 159.157 35.035 159.827 35.035C160.357 35.035 160.827 35.12 161.237 35.29C161.657 35.45 161.982 35.69 162.212 36.01C162.452 36.32 162.572 36.705 162.572 37.165C162.572 37.525 162.487 37.865 162.317 38.185C162.147 38.495 161.882 38.725 161.522 38.875C162.002 39.015 162.362 39.26 162.602 39.61C162.852 39.95 162.977 40.355 162.977 40.825C162.977 41.305 162.842 41.72 162.572 42.07C162.312 42.41 161.947 42.67 161.477 42.85C161.007 43.03 160.472 43.12 159.872 43.12ZM164.498 43V35.155H171.248V43H169.598V36.61H166.148V43H164.498ZM177.698 43.15C177.068 43.15 176.513 43 176.033 42.7C175.553 42.4 175.173 42.01 174.893 41.53V46.195H173.243V35.155H174.698V36.565C174.998 36.095 175.388 35.72 175.868 35.44C176.348 35.16 176.883 35.02 177.473 35.02C178.013 35.02 178.508 35.13 178.958 35.35C179.408 35.56 179.798 35.855 180.128 36.235C180.458 36.615 180.713 37.05 180.893 37.54C181.083 38.02 181.178 38.53 181.178 39.07C181.178 39.82 181.028 40.505 180.728 41.125C180.438 41.745 180.028 42.24 179.498 42.61C178.978 42.97 178.378 43.15 177.698 43.15ZM177.158 41.74C177.508 41.74 177.823 41.665 178.103 41.515C178.393 41.365 178.638 41.165 178.838 40.915C179.048 40.665 179.208 40.38 179.318 40.06C179.428 39.74 179.483 39.41 179.483 39.07C179.483 38.71 179.423 38.37 179.303 38.05C179.183 37.73 179.008 37.45 178.778 37.21C178.558 36.97 178.298 36.78 177.998 36.64C177.708 36.5 177.388 36.43 177.038 36.43C176.828 36.43 176.608 36.47 176.378 36.55C176.148 36.63 175.933 36.74 175.733 36.88C175.533 37.02 175.358 37.185 175.208 37.375C175.058 37.565 174.953 37.765 174.893 37.975V40.03C175.033 40.35 175.218 40.64 175.448 40.9C175.678 41.15 175.943 41.355 176.243 41.515C176.543 41.665 176.848 41.74 177.158 41.74ZM186.187 43.15C185.567 43.15 185.012 43.045 184.522 42.835C184.032 42.615 183.607 42.315 183.247 41.935C182.897 41.555 182.627 41.125 182.437 40.645C182.247 40.155 182.152 39.635 182.152 39.085C182.152 38.535 182.247 38.015 182.437 37.525C182.627 37.035 182.897 36.605 183.247 36.235C183.607 35.855 184.032 35.56 184.522 35.35C185.022 35.13 185.577 35.02 186.187 35.02C186.797 35.02 187.347 35.13 187.837 35.35C188.337 35.56 188.762 35.855 189.112 36.235C189.472 36.605 189.747 37.035 189.937 37.525C190.127 38.015 190.222 38.535 190.222 39.085C190.222 39.635 190.127 40.155 189.937 40.645C189.747 41.125 189.472 41.555 189.112 41.935C188.762 42.315 188.337 42.615 187.837 42.835C187.347 43.045 186.797 43.15 186.187 43.15ZM183.847 39.1C183.847 39.6 183.952 40.05 184.162 40.45C184.372 40.85 184.652 41.165 185.002 41.395C185.352 41.625 185.747 41.74 186.187 41.74C186.617 41.74 187.007 41.625 187.357 41.395C187.717 41.155 188.002 40.835 188.212 40.435C188.422 40.025 188.527 39.575 188.527 39.085C188.527 38.585 188.422 38.135 188.212 37.735C188.002 37.335 187.717 37.02 187.357 36.79C187.007 36.55 186.617 36.43 186.187 36.43C185.747 36.43 185.352 36.55 185.002 36.79C184.652 37.03 184.372 37.35 184.162 37.75C183.952 38.14 183.847 38.59 183.847 39.1ZM191.685 43V35.155H193.395L196.095 40L198.81 35.155H200.49V43H198.915V37.48L196.605 41.605H195.57L193.245 37.48V43H191.685ZM206.173 43V35.155H207.823V38.275H211.468V35.155H213.118V43H211.468V39.7H207.823V43H206.173ZM218.663 43.15C218.053 43.15 217.498 43.045 216.998 42.835C216.508 42.615 216.083 42.32 215.723 41.95C215.363 41.57 215.083 41.14 214.883 40.66C214.693 40.17 214.598 39.65 214.598 39.1C214.598 38.36 214.768 37.685 215.108 37.075C215.448 36.455 215.923 35.96 216.533 35.59C217.143 35.21 217.858 35.02 218.678 35.02C219.498 35.02 220.203 35.21 220.793 35.59C221.393 35.96 221.858 36.45 222.188 37.06C222.518 37.67 222.683 38.325 222.683 39.025C222.683 39.145 222.678 39.26 222.668 39.37C222.658 39.47 222.648 39.555 222.638 39.625H216.353C216.383 40.085 216.508 40.49 216.728 40.84C216.958 41.18 217.248 41.45 217.598 41.65C217.948 41.84 218.323 41.935 218.723 41.935C219.163 41.935 219.578 41.825 219.968 41.605C220.368 41.385 220.638 41.095 220.778 40.735L222.188 41.14C222.018 41.52 221.758 41.865 221.408 42.175C221.068 42.475 220.663 42.715 220.193 42.895C219.723 43.065 219.213 43.15 218.663 43.15ZM216.308 38.53H221.048C221.018 38.08 220.888 37.685 220.658 37.345C220.438 36.995 220.153 36.725 219.803 36.535C219.463 36.335 219.083 36.235 218.663 36.235C218.253 36.235 217.873 36.335 217.523 36.535C217.183 36.725 216.903 36.995 216.683 37.345C216.463 37.685 216.338 38.08 216.308 38.53ZM227.674 46.195V43H227.404C226.594 43 225.899 42.82 225.319 42.46C224.739 42.1 224.294 41.625 223.984 41.035C223.674 40.435 223.519 39.785 223.519 39.085C223.519 38.385 223.674 37.74 223.984 37.15C224.304 36.55 224.754 36.07 225.334 35.71C225.914 35.35 226.604 35.17 227.404 35.17H227.674V32.05H229.324V35.17H229.594C230.394 35.17 231.084 35.35 231.664 35.71C232.244 36.07 232.689 36.55 232.999 37.15C233.319 37.74 233.479 38.385 233.479 39.085C233.479 39.785 233.324 40.435 233.014 41.035C232.704 41.625 232.259 42.1 231.679 42.46C231.099 42.82 230.404 43 229.594 43H229.324V46.195H227.674ZM227.404 41.665H227.749V36.505H227.404C226.964 36.505 226.574 36.62 226.234 36.85C225.894 37.08 225.624 37.39 225.424 37.78C225.234 38.17 225.139 38.61 225.139 39.1C225.139 39.59 225.234 40.03 225.424 40.42C225.614 40.81 225.879 41.115 226.219 41.335C226.559 41.555 226.954 41.665 227.404 41.665ZM229.234 41.665H229.594C230.044 41.665 230.439 41.555 230.779 41.335C231.119 41.115 231.384 40.81 231.574 40.42C231.774 40.03 231.874 39.59 231.874 39.1C231.874 38.61 231.774 38.17 231.574 37.78C231.384 37.39 231.119 37.08 230.779 36.85C230.439 36.62 230.044 36.505 229.594 36.505H229.234V41.665ZM236.802 43V36.61H234.207V35.155H241.062V36.61H238.452V43H236.802ZM242.296 43V35.17H243.946V40.795L247.921 35.155H249.421V43H247.771V37.495L243.841 43H242.296ZM259.147 39.565L255.277 42.19V40.84L257.842 39.115L255.277 37.33V35.965L259.147 38.74V39.565ZM255.172 39.565L251.302 42.19V40.84L253.852 39.115L251.302 37.33V35.965L255.172 38.74V39.565Z" fill="#9E9C9A"/>
<rect x="1.5" y="1.5" width="47" height="47" stroke="#E65707" stroke-width="3"/>
<path d="M19.003 34.1426V21.0158L24.1298 30.7905H26.2988L31.4256 21.0158V34.1426H35.3129V14.1426H31.1721L25.2002 25.5229L19.2847 14.1426H15.1157V34.1426H19.003Z" fill="#E6E7E6"/>
</svg>
